<svg xmlns="http://www.w3.org/2000/svg" width="183.8" height="49.369" viewBox="0 0 183.8 49.369"><defs><style>.a{fill:#fff;}.b{fill:none;}</style></defs><g transform="translate(-115.8 -211.1)"><g transform="translate(189.266 218.811)"><path class="a" d="M367.893,242.208h-5.964v3.584h5.783V247.9h-5.783v4.97h5.964v2.108H359.7V240.1h8.193Z" transform="translate(-359.7 -239.076)"/><path class="a" d="M393.47,240.1l4.1,10.3,4.157-10.3h2.47l-6.687,15.994L391,240.1Z" transform="translate(-381.572 -239.076)"/><path class="a" d="M436.3,246.751a7.29,7.29,0,0,1,2.289-5.392A7.6,7.6,0,0,1,444.1,239.1a7.461,7.461,0,0,1,5.452,2.259,7.637,7.637,0,0,1,0,10.9,7.589,7.589,0,0,1-5.542,2.229,7.707,7.707,0,0,1-5.181-1.988A7.215,7.215,0,0,1,436.3,246.751Zm2.259.03a5.5,5.5,0,1,0,9.4-3.916,5.527,5.527,0,0,0-7.832,0A5.409,5.409,0,0,0,438.559,246.781Z" transform="translate(-413.227 -238.377)"/><path class="a" d="M499.459,240.1v12.771h4.368v2.108H497.2V240.1Z" transform="translate(-455.783 -239.076)"/><path class="a" d="M527.059,240.1v8.946a4.939,4.939,0,0,0,.633,2.8,3.378,3.378,0,0,0,5.271,0,4.807,4.807,0,0,0,.633-2.8V240.1h2.229v9.579a5.222,5.222,0,0,1-1.476,3.856,5.324,5.324,0,0,1-4.036,1.687,5.4,5.4,0,0,1-5.512-5.542V240.1Z" transform="translate(-475.07 -239.076)"/><path class="a" d="M573.663,242.208V254.98h-2.229V242.208H568V240.1h9.067v2.108Z" transform="translate(-505.257 -239.076)"/><path class="a" d="M607.029,240.1v14.88H604.8V240.1Z" transform="translate(-530.973 -239.076)"/><path class="a" d="M621.6,246.751a7.29,7.29,0,0,1,2.289-5.392A7.6,7.6,0,0,1,629.4,239.1a7.462,7.462,0,0,1,5.452,2.259,7.637,7.637,0,0,1,0,10.9,7.589,7.589,0,0,1-5.542,2.229,7.707,7.707,0,0,1-5.181-1.988A7.215,7.215,0,0,1,621.6,246.751Zm2.259.03a5.5,5.5,0,1,0,9.4-3.916,5.527,5.527,0,0,0-7.832,0A5.409,5.409,0,0,0,623.859,246.781Z" transform="translate(-542.712 -238.377)"/><path class="a" d="M682.6,252.574V236.7l10.844,11.356V237.724h2.229v15.784l-10.844-11.326V252.6H682.6Z" transform="translate(-585.338 -236.7)"/><path class="a" d="M361.929,311.413h6.416V305.6h2.229v14.88h-2.229v-6.928h-6.416v6.928H359.7V305.6h2.229Z" transform="translate(-359.7 -284.846)"/><path class="a" d="M405.2,312.251a7.29,7.29,0,0,1,2.289-5.392A7.6,7.6,0,0,1,413,304.6a7.461,7.461,0,0,1,5.452,2.259,7.637,7.637,0,0,1,0,10.9,7.589,7.589,0,0,1-5.542,2.229A7.707,7.707,0,0,1,407.73,318,7.215,7.215,0,0,1,405.2,312.251Zm2.259.03a5.5,5.5,0,1,0,9.4-3.916,5.527,5.527,0,0,0-7.832,0A5.359,5.359,0,0,0,407.459,312.281Z" transform="translate(-391.495 -284.148)"/><path class="a" d="M464.5,317.794l3.133-15.994,5.09,11.567,5.271-11.567,2.8,15.994h-2.289l-1.446-8.976-4.4,9.669-4.277-9.669-1.6,8.976Z" transform="translate(-432.933 -282.191)"/><path class="a" d="M537.393,307.708h-5.964v3.584h5.783V313.4h-5.783v4.97h5.964v2.108H529.2V305.6h8.193Z" transform="translate(-478.144 -284.846)"/></g><g transform="translate(115.8 211.1)"><path class="b" d="M146.9,216.2v21.175h7.621v1.566H146.9v23.464h15.241V216.2H146.9Z" transform="translate(-137.532 -214.664)"/><path class="a" d="M223.182,211.1H220.2v1.175l2.982-.693Z" transform="translate(-188.753 -211.1)"/><path class="a" d="M173.362,211.582V211.1H160.8v.482l2.982.723v.753h0v20.784H147.247V211.13H115.8v.482l2.982.723v46.929l-2.982.723v.482h34.429v-.482l-2.982-.723V235.408h16.537v23.1h0v.753l-2.982.723v.482h12.561v-.482l-2.982-.723V212.275Zm-32.953,1.446v45.845H125.168V235.408h6.416l.723,2.982h.482v-2.982h0v-1.536h-7.621V212.7h15.241Z" transform="translate(-115.8 -211.1)"/><path class="a" d="M168.2,279.582h1.2V276.6h-.482Z" transform="translate(-152.416 -256.871)"/></g></g></svg>