<svg xmlns="http://www.w3.org/2000/svg" width="16.107" height="16.107" viewBox="0 0 16.107 16.107"><defs><style>.a{fill:#474747;}</style></defs><path class="a" d="M8.052,1.449c2.151,0,2.406.009,3.255.047a4.5,4.5,0,0,1,1.5.277,2.493,2.493,0,0,1,.925.6,2.5,2.5,0,0,1,.6.927,4.487,4.487,0,0,1,.277,1.5c.038.848.046,1.1.046,3.253s-.007,2.406-.046,3.255a4.51,4.51,0,0,1-.277,1.5A2.673,2.673,0,0,1,12.8,14.331a4.5,4.5,0,0,1-1.5.277c-.848.038-1.1.046-3.255.046s-2.4-.007-3.253-.046a4.488,4.488,0,0,1-1.5-.277,2.5,2.5,0,0,1-.927-.6,2.493,2.493,0,0,1-.6-.925,4.509,4.509,0,0,1-.277-1.5c-.038-.848-.047-1.1-.047-3.255s.009-2.4.047-3.253a4.488,4.488,0,0,1,.277-1.5,2.514,2.514,0,0,1,.6-.927,2.514,2.514,0,0,1,.927-.6A4.487,4.487,0,0,1,4.8,1.5c.848-.038,1.1-.047,3.253-.047Zm5.267,2.3a.967.967,0,1,1-.967-.967A.969.969,0,0,1,13.319,3.754Zm-5.267.162a4.136,4.136,0,1,0,4.136,4.136A4.134,4.134,0,0,0,8.052,3.916Zm0,6.821a2.685,2.685,0,1,1,2.685-2.685A2.685,2.685,0,0,1,8.052,10.737Zm8.055-2.485v-.4c0-2.005-.011-2.29-.049-3.122a5.882,5.882,0,0,0-.374-1.954,3.944,3.944,0,0,0-.929-1.427A3.928,3.928,0,0,0,13.328.422,5.9,5.9,0,0,0,11.372.048C10.54.01,10.257,0,8.252,0h-.4c-2,0-2.288.011-3.122.049A5.892,5.892,0,0,0,2.777.422a3.912,3.912,0,0,0-1.427.929A3.945,3.945,0,0,0,.422,2.777,5.882,5.882,0,0,0,.048,4.731C.008,5.591,0,5.864,0,8.052s.009,2.461.049,3.32a5.9,5.9,0,0,0,.374,1.956,4.114,4.114,0,0,0,2.355,2.355,5.892,5.892,0,0,0,1.954.374c.859.04,1.135.049,3.32.049s2.463-.009,3.32-.049a5.9,5.9,0,0,0,1.956-.374,4.114,4.114,0,0,0,2.355-2.355,5.9,5.9,0,0,0,.374-1.956C16.1,10.54,16.1,10.257,16.106,8.252Z" transform="translate(0.001 0.001)"/></svg>