<svg xmlns="http://www.w3.org/2000/svg" width="18.585" height="16.107" viewBox="0 0 18.585 16.107"><defs><style>.a{fill:#474747;}</style></defs><path class="a" d="M18.577,70.393q-.124,2.719-3.79,7.445Q11,82.774,8.373,82.774q-1.625,0-2.749-3.006l-1.5-5.511q-.834-3-1.79-3.006a5.75,5.75,0,0,0-1.459.877L0,71q1.376-1.211,2.712-2.423A6.146,6.146,0,0,1,5.467,66.9q2.17-.209,2.671,2.972.541,3.432.751,4.268.625,2.847,1.377,2.846.583,0,1.752-1.847A7.286,7.286,0,0,0,13.27,72.33q.166-1.594-1.252-1.6a3.474,3.474,0,0,0-1.375.305q1.37-4.5,5.234-4.37Q18.742,66.754,18.577,70.393Z" transform="translate(-0.001 -66.666)"/></svg>