<svg xmlns="http://www.w3.org/2000/svg" width="16.107" height="11.329" viewBox="0 0 16.107 11.329"><defs><style>.a{fill:#474747;}</style></defs><path class="a" d="M6.391,156.087v-4.526l4.352,2.271Zm1.71-7.754H8.006c-.4,0-3.487.011-5.591.163a2.3,2.3,0,0,0-1.614.682,3.483,3.483,0,0,0-.64,1.6A24.359,24.359,0,0,0,0,153.384v1.222a24.358,24.358,0,0,0,.161,2.607,3.483,3.483,0,0,0,.64,1.6,2.731,2.731,0,0,0,1.776.688c1.289.124,5.476.162,5.476.162s3.385-.005,5.639-.168a2.3,2.3,0,0,0,1.614-.682,3.484,3.484,0,0,0,.64-1.6,24.394,24.394,0,0,0,.161-2.607v-1.222a24.4,24.4,0,0,0-.161-2.607,3.484,3.484,0,0,0-.64-1.6,2.3,2.3,0,0,0-1.614-.682C11.588,148.344,8.5,148.334,8.1,148.333Z" transform="translate(0 -148.333)"/></svg>